<svg width="113" height="112" viewBox="0 0 113 112" fill="none" xmlns="http://www.w3.org/2000/svg">
<path d="M65.0589 74.463C65.0619 74.4524 65.0627 74.4412 65.0613 74.4303C65.06 74.4193 65.0564 74.4087 65.051 74.3991C65.0455 74.3895 65.0383 74.3811 65.0295 74.3743C65.0208 74.3675 65.0109 74.3625 65.0002 74.3596C64.9896 74.3566 64.9785 74.3558 64.9675 74.3572C64.9565 74.3585 64.9459 74.362 64.9363 74.3675C64.9267 74.3729 64.9183 74.3802 64.9115 74.389C64.9047 74.3977 64.8997 74.4076 64.8968 74.4183C64.5941 75.6388 64.6901 76.9242 65.1708 78.0862C65.2043 78.1589 65.3161 78.0862 65.2994 78.0303C64.9235 76.8797 64.8408 75.6536 65.0589 74.463ZM68.8219 74.2953C68.8946 74.3624 69.0232 74.2953 68.9673 74.1834C68.669 73.8017 68.2652 73.516 67.8059 73.362C67.3466 73.2079 66.8522 73.1922 66.3841 73.3168C66.317 73.3168 66.3561 73.4566 66.4232 73.4454C66.8613 73.3967 67.3046 73.4479 67.7201 73.5951C68.1355 73.7423 68.5122 73.9817 68.8219 74.2953Z" fill="#9155FD"/>
<path d="M66.043 72.713C65.8 72.4781 65.4847 72.3323 65.1484 72.2992C65.2225 71.135 65.4596 69.9869 65.8529 68.8885C65.8976 68.799 65.7355 68.7264 65.6907 68.8158C65.2092 69.9058 64.9634 71.0852 64.9694 72.2768C64.9694 72.2768 64.114 72.3384 63.8512 72.6571C63.7455 72.8006 63.694 72.9769 63.7058 73.1547C62.9376 72.7704 62.08 72.6004 61.2233 72.6627C61.1995 72.6627 61.1768 72.6721 61.16 72.6889C61.1432 72.7056 61.1338 72.7284 61.1338 72.7521C61.1338 72.7758 61.1432 72.7986 61.16 72.8154C61.1768 72.8321 61.1995 72.8416 61.2233 72.8416C62.0845 72.858 62.9355 73.0323 63.7338 73.356C63.795 73.5949 63.9231 73.8115 64.103 73.9802C64.2829 74.149 64.5072 74.2629 64.7496 74.3087C64.992 74.3544 65.2424 74.3302 65.4715 74.2387C65.7006 74.1472 65.8988 73.9923 66.043 73.7921C66.043 73.7921 66.4567 73.1323 66.043 72.713ZM64.0189 72.8192C64.1363 72.5452 64.5333 72.4781 64.8297 72.4726C65.1817 72.4579 65.529 72.558 65.8193 72.7577C65.9479 72.8583 66.1045 72.9925 66.0765 73.1547C65.7802 74.8265 63.5045 74.0605 64.0189 72.8192ZM15.5757 74.2282C15.4564 75.0624 15.5888 75.9132 15.9559 76.6716C16.0007 76.7387 16.1181 76.6716 16.0901 76.6157C15.7855 75.8572 15.6722 75.0353 15.7602 74.2226C15.8106 74.2226 17.0966 74.1332 17.091 72.9422C17.7294 72.7682 18.3998 72.7471 19.0479 72.8807C19.0661 72.8847 19.0851 72.8817 19.101 72.8721C19.117 72.8626 19.1287 72.8473 19.1337 72.8294C19.1387 72.8114 19.1367 72.7923 19.128 72.7759C19.1193 72.7594 19.1047 72.7469 19.0871 72.7409C18.4276 72.5309 17.7168 72.5486 17.0686 72.7912C17.0183 72.6571 16.6101 72.0923 15.4975 72.2321C15.266 71.7801 15.2065 71.2595 15.3299 70.767C15.4533 70.2744 15.7512 69.8434 16.1684 69.5539C16.2523 69.4868 16.1684 69.3582 16.0901 69.4141C15.6233 69.7023 15.2826 70.1564 15.1364 70.6852C14.9902 71.214 15.0493 71.7785 15.3018 72.2657C14.4183 72.4781 14.34 72.9143 14.2953 73.0652C13.543 73.0199 12.7902 73.1441 12.0923 73.4287C12.0753 73.439 12.0631 73.4558 12.0583 73.4752C12.0536 73.4946 12.0568 73.515 12.0672 73.5321C12.0776 73.5492 12.0943 73.5614 12.1137 73.5661C12.1331 73.5708 12.1536 73.5676 12.1706 73.5573C12.8532 73.3732 13.5551 73.2699 14.2618 73.2497C14.2785 73.4026 14.3265 73.5503 14.4028 73.6838C14.4792 73.8172 14.5822 73.9335 14.7055 74.0253C14.8288 74.1171 14.9698 74.1825 15.1195 74.2175C15.2692 74.2524 15.4245 74.256 15.5757 74.2282ZM14.614 72.8807C15.1732 72.1762 16.94 72.2265 16.94 73.0093C16.8841 73.999 15.4863 74.245 14.7818 73.8089C14.6384 73.7071 14.5386 73.5551 14.5024 73.3831C14.4661 73.2111 14.496 73.0317 14.5861 72.8807H14.614ZM47.0828 24.9296C47.0812 24.9149 47.0764 24.9008 47.0688 24.8883C47.0611 24.8757 47.0508 24.8649 47.0386 24.8568C47.0263 24.8486 47.0124 24.8433 46.9979 24.841C46.9833 24.8388 46.9685 24.8398 46.9544 24.844C46.9403 24.8481 46.9272 24.8553 46.9162 24.8651C46.9052 24.8748 46.8964 24.8868 46.8905 24.9003C46.8846 24.9138 46.8818 24.9284 46.8822 24.9431C46.8825 24.9579 46.8861 24.9723 46.8927 24.9855C46.9263 25.0861 47.1052 25.5837 47.122 25.6173C47.1351 25.6333 47.153 25.6445 47.1731 25.6494C47.1932 25.6543 47.2143 25.6524 47.2332 25.6442C47.2522 25.636 47.268 25.6218 47.2782 25.6039C47.2883 25.5859 47.2924 25.5651 47.2897 25.5446C47.2841 25.5111 47.122 25.0302 47.0828 24.9296ZM44.399 25.8521C44.3939 25.8315 44.382 25.8132 44.3653 25.8001C44.3486 25.7871 44.328 25.78 44.3067 25.78C44.2855 25.78 44.2649 25.7871 44.2482 25.8001C44.2314 25.8132 44.2196 25.8315 44.2145 25.8521C44.1892 25.9824 44.1906 26.1164 44.2184 26.2461C44.2463 26.3758 44.3001 26.4986 44.3766 26.607C44.3883 26.6146 44.4016 26.6192 44.4155 26.6204C44.4293 26.6215 44.4433 26.6192 44.456 26.6137C44.4688 26.6082 44.4799 26.5995 44.4885 26.5886C44.4971 26.5776 44.5029 26.5647 44.5052 26.551C44.433 26.3252 44.3971 26.0893 44.399 25.8521ZM28.0332 47.0991C29.5149 47.2445 30.9966 47.4067 32.4783 47.552C32.551 47.552 32.5901 47.4793 32.5789 47.4234C31.3377 41.5693 31.6172 40.7139 31.3544 40.7139C29.7538 40.8598 28.1403 40.7637 26.5683 40.4287C26.5527 40.4239 26.5362 40.4234 26.5204 40.4274C26.5046 40.4313 26.4902 40.4394 26.4787 40.4509C26.4672 40.4624 26.459 40.4769 26.4551 40.4926C26.4512 40.5084 26.4517 40.525 26.4564 40.5405C27.0883 42.6261 27.9214 47.0656 28.0332 47.0991ZM26.6801 40.63C28.1888 40.9436 29.7349 41.0377 31.2706 40.9095C31.5445 43.0566 31.9136 45.1869 32.3497 47.3116L28.0611 46.8587C27.741 44.7538 27.2797 42.6729 26.6801 40.63ZM36.9625 44.8626C37.0576 44.8626 37.0296 44.7116 36.9625 44.7061C36.4593 44.7061 34.4185 44.6557 33.9041 44.583C33.809 44.583 33.7643 44.7172 33.8649 44.734C34.8919 44.865 35.9282 44.9081 36.9625 44.8626ZM33.5183 42.9336C33.4176 42.9336 33.4232 43.079 33.5183 43.0902C34.7239 43.1784 35.9333 43.2027 37.1415 43.1628C37.2365 43.1628 37.203 43.0119 37.1415 43.0063C36.8227 42.9783 34.1165 42.9783 33.5183 42.9336ZM33.3897 41.5525C34.5318 41.6976 35.6828 41.7611 36.8339 41.7427C36.8532 41.7377 36.8702 41.7265 36.8824 41.7108C36.8946 41.6951 36.9012 41.6759 36.9012 41.656C36.9012 41.6361 36.8946 41.6168 36.8824 41.6011C36.8702 41.5854 36.8532 41.5742 36.8339 41.5693C36.2748 41.5693 33.6916 41.4128 33.412 41.4072C33.4025 41.4057 33.3928 41.4061 33.3834 41.4084C33.374 41.4107 33.3652 41.4148 33.3574 41.4206C33.3496 41.4263 33.343 41.4335 33.338 41.4417C33.333 41.45 33.3296 41.4591 33.3282 41.4687C33.3267 41.4782 33.3271 41.488 33.3294 41.4973C33.3317 41.5067 33.3358 41.5156 33.3416 41.5233C33.3473 41.5311 33.3545 41.5377 33.3627 41.5427C33.371 41.5477 33.3801 41.5511 33.3897 41.5525ZM38.6343 45.3826C40.1547 45.4517 41.6783 45.3805 43.1857 45.1701C43.2145 45.1676 43.2415 45.155 43.2619 45.1346C43.2824 45.1141 43.295 45.0871 43.2975 45.0583C43.1577 41.4631 43.5715 40.9822 43.2248 41.0326C41.7039 41.2562 40.1598 41.2731 38.6343 41.0829C38.5952 41.0829 38.4778 41.1388 38.4778 41.1779C38.4386 42.5422 38.4778 43.9009 38.5169 45.2652C38.5169 45.2963 38.5293 45.3262 38.5513 45.3482C38.5733 45.3702 38.6032 45.3826 38.6343 45.3826ZM43.1353 41.273C43.0459 42.4991 43.0235 43.7291 43.0682 44.9577C41.6355 45.143 40.1898 45.2084 38.7462 45.1534C38.707 43.8729 38.6399 42.5925 38.6176 41.3121C40.1225 41.4054 41.6322 41.3923 43.1353 41.273ZM34.3961 47.7645C35.6542 47.8428 41.2902 47.8036 41.8997 47.7198C41.9779 47.7198 41.9556 47.5856 41.8997 47.5856C41.279 47.5576 35.6653 47.6527 34.4129 47.6415C34.3178 47.6583 34.3178 47.7589 34.3961 47.7645ZM41.3909 49.7494C41.4101 49.7494 41.4286 49.7418 41.4423 49.7281C41.4559 49.7145 41.4635 49.696 41.4635 49.6767C41.4635 49.6575 41.4559 49.639 41.4423 49.6253C41.4286 49.6117 41.4101 49.604 41.3909 49.604C37.9075 49.604 28.9893 49.1791 28.0164 49.0952C27.9381 49.0952 27.9381 49.2071 28.0164 49.2182C31.483 49.5705 40.4124 49.783 41.3909 49.7494ZM39.8309 52.4948C39.9315 52.4948 39.9595 52.3326 39.8588 52.3158C36.1628 51.8572 32.4448 51.5978 28.7209 51.5386C28.7016 51.5386 28.6832 51.5463 28.6695 51.5599C28.6559 51.5736 28.6482 51.5921 28.6482 51.6113C28.6482 51.6306 28.6559 51.6491 28.6695 51.6627C28.6832 51.6764 28.7016 51.684 28.7209 51.684C31.6116 51.7958 33.1437 51.8629 39.8309 52.4948ZM38.6399 54.8599C38.6577 54.8599 38.6748 54.8528 38.6874 54.8402C38.7 54.8277 38.707 54.8106 38.707 54.7928C38.707 54.775 38.7 54.7579 38.6874 54.7453C38.6748 54.7328 38.6577 54.7257 38.6399 54.7257C38.0137 54.6586 29.6435 54.4741 28.9278 54.4685C28.8495 54.4685 28.8495 54.5915 28.9278 54.5915C31.4495 54.6977 37.941 54.927 38.6399 54.8599ZM36.9122 57.7562C37.0296 57.7562 37.024 57.5885 36.9122 57.5717C35.6598 57.4095 30.6108 57.0125 29.3527 56.979C29.2856 56.979 29.2689 57.0908 29.3527 57.0964C30.5772 57.2697 35.6374 57.7226 36.9122 57.7562ZM36.5208 60.2164C36.5373 60.2118 36.5519 60.202 36.5623 60.1883C36.5727 60.1747 36.5784 60.158 36.5784 60.1409C36.5784 60.1237 36.5727 60.1071 36.5623 60.0934C36.5519 60.0798 36.5373 60.07 36.5208 60.0654C36.04 59.9256 30.622 59.4392 30.3704 59.4671C30.3585 59.4671 30.3471 59.4718 30.3387 59.4802C30.3303 59.4886 30.3256 59.5 30.3256 59.5119C30.3256 59.5237 30.3303 59.5351 30.3387 59.5435C30.3471 59.5519 30.3585 59.5566 30.3704 59.5566C30.5996 59.6349 36.0064 60.2555 36.5208 60.2164ZM37.4602 62.5759C37.1974 62.4976 31.7738 62.0168 30.622 61.9441C30.5493 61.9441 30.5549 62.0503 30.622 62.0559C31.7402 62.1957 37.1414 62.766 37.4378 62.7437C37.46 62.7466 37.4825 62.7406 37.5004 62.727C37.5182 62.7134 37.5299 62.6932 37.5328 62.671C37.5358 62.6487 37.5298 62.6262 37.5162 62.6084C37.5026 62.5906 37.4824 62.5789 37.4602 62.5759ZM38.433 56.5261C38.5561 58.6173 38.6511 60.7196 38.8188 62.8107C38.8076 62.8252 38.8006 62.8424 38.7984 62.8605C38.7962 62.8786 38.799 62.897 38.8065 62.9136C38.814 62.9303 38.8258 62.9446 38.8408 62.9551C38.8558 62.9655 38.8733 62.9717 38.8915 62.9729C40.2782 63.0976 41.6708 63.1443 43.0627 63.1127C43.0763 63.1134 43.09 63.1114 43.1029 63.1067C43.1158 63.102 43.1275 63.0947 43.1375 63.0853C43.1474 63.0758 43.1553 63.0645 43.1607 63.0519C43.1661 63.0393 43.1689 63.0257 43.1689 63.012L42.8502 56.705C42.8488 56.6763 42.8363 56.6493 42.8155 56.6295C42.7947 56.6098 42.7671 56.5988 42.7384 56.5988L38.5393 56.4199C38.5251 56.4191 38.5109 56.4212 38.4977 56.4263C38.4844 56.4313 38.4724 56.4391 38.4624 56.4492C38.4523 56.4592 38.4445 56.4712 38.4395 56.4845C38.4344 56.4978 38.4322 56.5119 38.433 56.5261ZM42.6377 56.8057C42.744 58.8409 42.8446 60.8761 42.9508 62.9114C41.6168 62.9393 40.2822 62.8945 38.953 62.7772C38.8859 60.7308 38.7462 58.6844 38.6511 56.6267L42.6377 56.8057ZM16.1628 49.5929C14.9888 49.6475 13.827 49.8562 12.7074 50.2135C12.4446 50.2974 11.5388 50.4651 11.4717 50.8174C11.4046 51.1696 11.8463 51.1584 12.0812 51.1417C13.4781 51.0446 14.8551 50.7568 16.174 50.2862C16.3025 50.25 16.4211 50.185 16.5207 50.0961C16.5702 50.0501 16.6035 49.9892 16.6156 49.9227C16.6277 49.8562 16.6179 49.7876 16.5878 49.7271C16.5039 49.5985 16.3194 49.5873 16.1628 49.5929Z" fill="#9155FD"/>
<path d="M103.796 32.4555C102.381 28.7652 93.7648 5.25369 92.9485 3.06749C92.8965 2.99719 92.8212 2.94765 92.736 2.9277C91.1313 2.9277 81.2962 3.15695 80.396 3.22404C80.2841 3.22404 71.8357 30.683 71.3436 32.4611C71.3436 32.517 71.4331 33.8868 71.4722 34.0043C71.5114 34.1217 71.6344 34.0993 71.6511 34.0043C71.6679 33.9092 71.5785 32.7518 71.5729 32.6959C71.9475 32.735 72.3277 32.7686 72.6911 32.7965C72.5866 33.3751 72.6269 33.9706 72.8085 34.5298C72.8182 34.5473 72.8334 34.561 72.8518 34.5689C72.8701 34.5767 72.8906 34.5781 72.9099 34.573C72.9292 34.5679 72.9462 34.5564 72.9582 34.5405C72.9702 34.5246 72.9766 34.5051 72.9763 34.4851C72.839 33.9372 72.7974 33.3698 72.8533 32.8077C73.4515 32.8636 74.0554 32.9084 74.6593 32.9531C74.5842 33.6171 74.6666 34.2894 74.8997 34.9156C74.909 34.9319 74.9235 34.9446 74.9409 34.9516C74.9582 34.9587 74.9775 34.9597 74.9955 34.9545C75.0135 34.9494 75.0293 34.9384 75.0403 34.9232C75.0513 34.9081 75.0569 34.8896 75.0563 34.8709C74.8915 34.2493 74.818 33.607 74.8382 32.9643C75.4644 33.009 76.0962 33.0481 76.7281 33.0817V34.843C76.7349 34.8627 76.7478 34.8798 76.7648 34.8919C76.7818 34.904 76.8022 34.9105 76.8231 34.9105C76.844 34.9105 76.8644 34.904 76.8814 34.8919C76.8985 34.8798 76.9113 34.8627 76.9182 34.843V33.0929L78.6906 33.1823C78.6906 33.4563 78.6906 34.7703 78.7297 34.8597C78.7361 34.8769 78.7476 34.8916 78.7625 34.902C78.7775 34.9125 78.7954 34.9181 78.8136 34.9181C78.8319 34.9181 78.8497 34.9125 78.8647 34.902C78.8797 34.8916 78.8911 34.8769 78.8975 34.8597C78.9121 34.3002 78.8972 33.7403 78.8528 33.1823C79.5517 33.2103 80.245 33.2383 80.9439 33.255C80.9559 33.8163 81.0007 34.3764 81.0781 34.9324C81.0781 35.0275 81.2403 34.9995 81.2458 34.9324C81.24 34.3716 81.2027 33.8116 81.134 33.255C81.8777 33.255 82.6213 33.2886 83.3705 33.2942C83.3705 33.2942 83.3035 34.6193 83.3202 34.8709C83.3202 34.9604 83.4712 34.9939 83.4824 34.8709C83.5215 34.6193 83.5662 33.2886 83.5551 33.2718H85.389V34.692C85.3954 34.7091 85.4068 34.7239 85.4218 34.7343C85.4368 34.7447 85.4546 34.7503 85.4729 34.7503C85.4911 34.7503 85.509 34.7447 85.524 34.7343C85.539 34.7239 85.5504 34.7091 85.5568 34.692C85.5818 34.2189 85.5818 33.7449 85.5568 33.2718H85.7748C85.6965 37.2416 85.5176 44.5551 85.5176 45.2428C85.266 45.2428 70.7174 45.2037 69.6047 45.2428C68.2237 41.8433 65.9312 38.2481 62.8951 36.2967C60.0917 34.5684 56.8564 33.6689 53.5632 33.7023C53.5632 33.7023 52.6407 31.0632 52.5456 30.7054C52.803 29.7797 52.9622 28.8296 53.0209 27.8706C53.197 26.0552 53.2736 24.2316 53.2501 22.4079C53.2501 20.7305 53.2892 19.327 51.5727 18.5722C51.5134 18.4673 51.4823 18.3489 51.4823 18.2284C51.4823 18.1079 51.5134 17.9894 51.5727 17.8845C51.1446 17.9035 50.7287 18.0325 50.365 18.2591C50.2802 17.8563 50.0739 17.4892 49.774 17.2073C49.474 16.9253 49.0949 16.7421 48.6876 16.6824C48.8377 16.773 48.9583 16.9052 49.0347 17.063C49.1111 17.2208 49.1401 17.3974 49.1181 17.5714C45.9926 15.6703 45.2042 19.4501 43.6666 19.2488C43.2965 19.1509 42.9794 18.9121 42.7832 18.5834C42.6384 18.8233 42.5665 19.1001 42.5765 19.3801C42.5864 19.6601 42.6776 19.9312 42.8391 20.1602C42.6773 20.116 42.526 20.0396 42.3944 19.9356C42.2628 19.8316 42.1536 19.7021 42.0732 19.5549C41.9928 19.4077 41.9429 19.2458 41.9266 19.0789C41.9102 18.9119 41.9277 18.7434 41.978 18.5834C41.5635 18.78 41.221 19.1014 40.9984 19.5024C40.7758 19.9035 40.6843 20.3642 40.7367 20.8199C40.797 21.1775 40.9409 21.5158 41.1565 21.8072C41.3722 22.0987 41.6537 22.3352 41.978 22.4973C41.5814 22.5812 41.168 22.53 40.8038 22.352C41.1767 22.9695 41.7426 23.447 42.4141 23.7106C42.4792 25.207 42.7772 26.6841 43.2976 28.0886C43.0259 28.9494 42.9759 29.8649 43.1522 30.7501C43.5324 33.7303 46.3281 34.8821 49.1237 33.9204C48.9168 34.3957 48.3689 34.4292 47.8936 34.5354C47.2197 34.6827 46.5551 34.8694 45.9031 35.0946C44.6099 35.6154 43.3886 36.2994 42.2688 37.1298C31.4551 37.415 26.0036 37.0795 24.4492 36.9621C25.6066 36.1625 26.8703 34.8262 26.4453 33.4787C26.2232 32.8257 25.8799 32.2206 25.4333 31.695C23.5155 29.3523 20.3508 29.0392 17.7676 27.988C17.488 27.8706 14.7706 26.5231 14.4687 25.3657C14.4172 25.2015 14.4175 25.0254 14.4696 24.8614C14.5216 24.6973 14.6228 24.5533 14.7595 24.4487C14.8433 24.3984 14.821 24.2362 14.7091 24.2474C14.1185 24.3035 13.557 24.5304 13.0932 24.9005C12.6295 25.2706 12.2837 25.7678 12.098 26.3313C11.9124 26.8948 11.8949 27.5002 12.0478 28.0735C12.2008 28.6467 12.5174 29.163 12.9591 29.5592C13.8313 30.3979 14.9887 30.8116 16.0063 31.4267C17.0239 32.0417 18.0416 32.9475 17.9912 34.2223C17.9409 35.4971 16.8338 36.5595 15.71 37.0907C14.4799 37.6498 13.1156 37.8679 11.8576 38.3767C9.53157 39.3216 8.88857 41.1723 9.23523 42.3689C9.4197 42.9059 9.79603 43.356 10.292 43.6325C11.4103 44.3091 13.0317 44.1916 13.8816 45.3099C14.0953 45.5581 14.2141 45.874 14.2172 46.2015C14.2203 46.5289 14.1073 46.8469 13.8984 47.0991C13.4958 47.6024 11.8464 48.6032 11.6619 48.7765C11.6004 48.8492 11.701 48.9555 11.7681 48.8828C12.5478 48.5105 13.3893 48.285 14.2506 48.2174C15.6149 47.9882 19.3947 46.6127 20.0433 45.4553C20.1704 45.2585 20.2147 45.0194 20.1665 44.7901C20.1184 44.5608 19.9816 44.3598 19.7861 44.2308C19.5289 44.0463 18.5392 44.1469 18.0639 43.4368C17.1358 42.0614 18.3435 40.507 19.4562 39.6795C20.4171 39.0336 21.442 38.4883 22.5146 38.0524C23.7223 41.4072 26.0819 49.5761 26.2496 50.2191C25.8359 50.275 22.6544 50.7335 22.2071 50.7782C21.7598 50.823 20.0153 50.3757 19.719 50.5769C19.065 50.2629 18.3238 50.1801 17.6166 50.3421C17.4762 49.8339 17.289 49.3397 17.0575 48.866C13.4679 48.866 11.304 50.029 10.3926 50.7335C10.3591 50.7335 10.3926 50.8565 10.3926 50.8733C10.7113 52.0978 12.249 57.5829 12.467 58.1923C12.467 58.2259 16.2523 59.4783 19.1766 56.7777C19.1766 56.7777 19.0424 55.9334 19.02 55.542C19.5125 55.4953 19.9734 55.2791 20.3242 54.9304C20.675 54.5816 20.8939 54.122 20.9435 53.6298C23.1198 53.8495 25.2731 54.2573 27.3791 54.8487C27.6866 56.1962 28.7825 61.972 29.0565 63.4985C28.5073 63.4996 27.9685 63.6483 27.4965 63.929C27.435 63.9681 13.658 64.6167 12.3999 65.2597C11.3082 65.7396 10.4114 66.5753 9.85587 67.6305C9.3777 68.7251 9.20385 69.9286 9.35265 71.1139C9.65458 73.9095 11.304 76.3138 12.6348 78.7236C13.6915 80.6471 13.4679 84.164 13.5238 84.958C12.2713 84.2926 9.15136 84.6728 9.13459 84.684C9.05358 84.7579 9.00427 84.8603 8.99697 84.9697C8.98968 85.0791 9.02497 85.1871 9.09545 85.2711C10.4367 86.9896 12.0098 88.5137 13.7698 89.8C13.8537 92.1764 13.8201 98.5113 13.7698 99.3053C13.7698 99.6743 13.5965 101.083 13.63 101.419C13.6485 101.685 13.7341 101.943 13.8788 102.168C14.0234 102.393 14.2225 102.577 14.4575 102.705C15.2459 103.096 15.2347 102.962 31.3657 102.632C31.3657 102.906 31.3992 103.191 31.4104 103.443H32.7356V105.584C32.6964 105.551 32.3553 105.389 32.2267 105.439C31.5416 105.71 30.8828 106.043 30.2586 106.434C28.4191 107.552 28.1786 108.492 28.1786 108.509C28.1653 108.614 28.1925 108.721 28.2548 108.807C28.3171 108.893 28.4098 108.952 28.5141 108.973C30.1915 109.297 35.8555 109.073 36.4146 108.973C36.7389 108.906 36.7725 108.604 36.7557 108.279C36.7506 108.187 36.714 108.098 36.652 108.029C36.59 107.96 36.5063 107.914 36.4146 107.899C36.7389 107.211 36.286 106.373 35.8555 105.758C35.425 105.143 35.6039 103.717 35.6095 103.594C36.1351 103.633 36.6607 103.672 37.1918 103.722C37.22 103.306 37.2836 102.893 37.3819 102.487C40.7509 102.428 44.1126 102.154 47.4463 101.665C47.4463 101.665 47.8601 99.4283 48.0054 98.31C48.8665 98.31 55.6656 98.31 58.204 98.2653C58.2767 98.9139 58.7296 102.738 58.7631 102.738C61.2066 103.773 64.3545 104.013 66.988 103.935C67.0942 103.935 72.4954 103.605 75.7663 103.051C77.3154 102.819 78.8798 102.703 80.4463 102.705C79.6188 103.23 76.5324 105.031 75.8726 105.473C75.8505 105.506 75.8387 105.545 75.8387 105.584C75.8387 105.624 75.8505 105.663 75.8726 105.696C78.9031 107.407 83.8794 107.245 87.7038 107.245C89.2973 107.245 91.478 107.351 94.0388 106.233C94.5979 105.993 95.8224 105.394 95.5764 104.83C95.5373 104.762 89.9459 101.715 88.9004 101.083C88.386 96.9681 88.0281 92.9424 88.8612 88.0611C89.1017 86.6521 90.2143 82.2629 93.1106 76.3194C94.693 73.0932 94.3239 69.4085 92.7136 67.0602C92.4366 66.6335 92.0908 66.2557 91.6904 65.9419C91.1056 65.6523 90.4761 65.4633 89.8285 65.3828C90.8741 60.9097 91.7016 55.9837 91.6233 51.4044C91.6825 50.0207 91.382 48.6452 90.7511 47.4122C90.1025 46.294 88.8892 45.3602 87.5473 45.4665C87.5808 42.0725 87.6255 34.1832 87.6255 33.2662H87.9163V34.815C87.9229 34.8334 87.935 34.8494 87.9511 34.8606C87.9671 34.8719 87.9862 34.8779 88.0057 34.8779C88.0253 34.8779 88.0444 34.8719 88.0604 34.8606C88.0765 34.8494 88.0886 34.8334 88.0952 34.815C88.1232 34.6808 88.1288 33.501 88.0952 33.2606H89.672C89.6773 33.7336 89.7091 34.2058 89.767 34.6752C89.7716 34.6918 89.7814 34.7063 89.795 34.7167C89.8087 34.7271 89.8253 34.7328 89.8425 34.7328C89.8596 34.7328 89.8763 34.7271 89.89 34.7167C89.9036 34.7063 89.9134 34.6918 89.918 34.6752C89.9103 34.2088 89.8692 33.7435 89.795 33.283L91.4724 33.2327C91.41 33.7399 91.5016 34.2542 91.7352 34.7088C91.7743 34.7591 91.8749 34.7535 91.8693 34.6752C91.7217 34.2092 91.6555 33.7212 91.6737 33.2327L93.8543 33.1208C93.8543 33.1208 93.8151 34.3286 93.8543 34.446C93.8611 34.4657 93.874 34.4828 93.891 34.4949C93.908 34.507 93.9284 34.5135 93.9493 34.5135C93.9702 34.5135 93.9906 34.507 94.0076 34.4949C94.0247 34.4828 94.0375 34.4657 94.0444 34.446V33.1152L95.6715 33.0481C95.5257 33.5929 95.5711 34.1711 95.8001 34.6864C95.8448 34.7815 95.9902 34.6864 95.9622 34.6193C95.7972 34.1087 95.7588 33.5657 95.8504 33.037L97.8577 32.9363C97.8294 33.4354 97.8294 33.9357 97.8577 34.4348C97.8622 34.4513 97.872 34.4659 97.8857 34.4763C97.8993 34.4867 97.916 34.4923 97.9331 34.4923C97.9503 34.4923 97.967 34.4867 97.9806 34.4763C97.9942 34.4659 98.0041 34.4513 98.0086 34.4348C98.0368 33.932 98.0368 33.428 98.0086 32.9251L99.7252 32.8357C99.7252 33.0537 99.7252 34.0993 99.7811 34.2111C99.7856 34.2277 99.7955 34.2423 99.8091 34.2527C99.8227 34.2631 99.8394 34.2687 99.8566 34.2687C99.8737 34.2687 99.8904 34.2631 99.904 34.2527C99.9177 34.2423 99.9275 34.2277 99.932 34.2111C99.9385 33.7484 99.9217 33.2856 99.8817 32.8245L101.654 32.7183C101.654 32.9307 101.749 33.8365 101.8 34.0434C101.804 34.0626 101.816 34.0797 101.831 34.0919C101.847 34.1041 101.866 34.1107 101.886 34.1107C101.906 34.1107 101.925 34.1041 101.941 34.0919C101.957 34.0797 101.968 34.0626 101.973 34.0434C101.973 33.8142 101.85 32.9251 101.816 32.735L103.589 32.6232C103.396 33.0055 103.352 33.446 103.466 33.8589C103.466 33.9148 103.622 33.9036 103.606 33.8589C103.537 33.3825 103.602 32.8963 103.796 32.4555ZM76.9182 32.9195C75.1289 32.8245 73.3453 32.6959 71.5617 32.5449C71.6288 32.4331 80.5078 3.28555 80.5078 3.34146H82.8506C82.1572 7.18829 77.4102 30.7725 76.9182 32.9195ZM77.2089 32.9195C78.0308 29.0951 83.0295 3.28555 83.0239 3.28555H85.6854C85.5232 5.25369 84.4441 30.9402 84.349 33.1208C82.4312 33.1208 77.6898 32.9587 77.2089 32.9363V32.9195ZM85.5959 45.5V46.8643C85.0305 47.8972 84.5282 48.9633 84.0918 50.0569C82.5039 53.8758 81.6931 59.8306 82.6101 65.366C66.8091 65.4163 68.0336 65.4051 68.0391 65.366C68.0839 64.8068 67.9553 61.877 67.9497 61.8658C68.712 61.1326 69.317 60.2517 69.7277 59.277C71.0696 56.0788 70.2142 52.5674 69.3755 49.3077C69.8228 49.1064 70.2645 48.8884 70.695 48.6479C70.7621 48.6088 70.7621 48.4355 70.7509 48.3963C70.4836 47.4483 70.1664 46.5151 69.8004 45.6007C71.8133 45.5447 85.5791 45.5392 85.5959 45.5168V45.5ZM85.6462 47.2389L85.3443 65.3604H82.9065C82.2389 61.6284 82.3169 57.8012 83.1357 54.0995C83.7564 51.069 84.349 49.8277 85.6462 47.2557V47.2389ZM57.5778 90.4207C53.1047 90.4207 41.2679 90.3033 39.7918 90.2865C40.3509 86.8814 41.4021 78.7292 41.307 77.9856C42.4253 77.9856 48.1173 77.9185 49.8506 77.9241C52.602 78.235 55.3812 78.2069 58.1257 77.8402C57.589 80.4402 57.1361 82.6711 57.5778 90.4375V90.4207ZM46.6635 62.3299C46.4399 61.2116 45.7466 57.4487 45.6795 56.7386C45.93 56.7192 46.1816 56.7564 46.4158 56.8474C46.65 56.9384 46.8608 57.0808 47.0326 57.2642C47.6476 57.7115 54.1503 61.603 54.7933 61.9497C56.1049 62.6587 57.4906 63.2212 58.9253 63.6271C62.364 64.5888 65.1261 64.449 67.7652 62.0391C67.7652 62.2348 67.8379 65.3101 67.9105 65.3939H66.2332C65.2102 65.4699 64.2179 65.7778 63.3315 66.2941C62.4451 66.8104 61.6878 67.5217 61.1171 68.3741C59.0259 67.0713 51.802 63.7892 46.6635 62.3299ZM47.0605 65.7518H46.5014C46.4678 65.6288 45.1259 60.043 44.8911 58.7738C44.7625 58.1084 44.6674 57.4375 44.5276 56.7721C44.8461 56.7916 45.1654 56.7916 45.4838 56.7721C45.7186 59.2267 46.8872 65.2038 47.0605 65.7518ZM64.7794 63.5991C62.2298 64.5049 58.7408 63.5376 56.2694 62.4529C55.0058 61.8938 53.8987 61.0718 52.6854 60.4177C49.3306 58.6228 46.6579 56.7609 46.384 56.6491C45.4894 56.2857 44.6451 57.2082 42.375 55.6091C42.3191 55.57 42.2017 55.4973 42.2184 55.419C42.2352 55.3407 42.4421 55.3575 42.5204 55.3687C42.8779 55.4252 43.2259 55.5305 43.5548 55.6818C43.6498 55.721 43.7393 55.5812 43.6386 55.5364C43.0642 55.257 42.5143 54.9297 41.9948 54.558C41.9109 54.4294 41.9948 54.3119 42.1346 54.3231C42.1849 54.3231 43.3814 54.8823 43.6889 55.0053C43.784 55.05 43.8623 54.9158 43.7728 54.8655C43.1655 54.5887 42.5738 54.2788 42.0004 53.9373C41.7544 53.6969 41.8662 53.4397 42.0619 53.4397C42.1066 53.4732 43.1801 53.9038 43.6666 54.0659C43.8064 54.1162 43.8623 53.8982 43.7281 53.8479C43.3758 53.7193 42.375 53.367 42.2464 53.2887C42.1178 53.2104 42.0227 53.0315 42.2464 52.9756C42.47 52.9197 43.9238 53.0595 44.3152 53.0874C44.3332 53.0883 44.3511 53.0848 44.3674 53.0772C44.3838 53.0696 44.398 53.0582 44.409 53.0439C44.42 53.0296 44.4273 53.0129 44.4305 52.9952C44.4336 52.9775 44.4324 52.9592 44.427 52.9421C44.3267 52.7436 44.2933 52.518 44.332 52.2991C44.399 52.0978 44.4997 52.232 44.5892 52.355C44.7793 52.6066 45.6403 53.9485 46.4119 54.1498C49.3641 54.927 52.4785 55.0053 55.2742 55.3296C55.9675 55.4078 57.958 55.7545 58.2599 55.8384C58.4668 55.8999 59.1322 56.1068 59.121 55.8887C59.0707 55.1898 58.5954 52.3773 58.5227 51.6561C59.8646 51.589 67.972 50.3365 69.191 49.4195C69.9122 52.1761 70.6391 55.0779 69.9682 57.9239C69.6533 59.2313 69.0123 60.4375 68.1049 61.43C67.1975 62.4224 66.0534 63.1687 64.7794 63.5991ZM47.6252 29.0448C47.3569 29.7213 46.507 29.5088 46.2777 29.3746C46.2585 29.3628 46.2447 29.3438 46.2394 29.3217C46.2342 29.2997 46.2379 29.2765 46.2498 29.2572C46.2616 29.238 46.2807 29.2242 46.3027 29.2189C46.3247 29.2137 46.3479 29.2174 46.3672 29.2293C46.5293 29.3187 47.2338 29.4473 47.4855 28.9553C47.5414 28.8882 47.6476 28.9888 47.6252 29.0448ZM47.0997 27.0878C47.0488 27.2323 46.9639 27.3624 46.8522 27.4673C46.7405 27.5721 46.6052 27.6486 46.4578 27.6902C46.3104 27.7319 46.1551 27.7375 46.005 27.7066C45.855 27.6757 45.7146 27.6092 45.5956 27.5127C45.7378 26.6962 45.6997 25.8584 45.4838 25.0582C45.4838 24.9575 45.316 25.0022 45.3328 25.1029C45.4556 25.8604 45.495 26.6292 45.4502 27.3953C45.0976 27.4509 44.7705 27.613 44.5126 27.8599C44.2548 28.1067 44.0786 28.4265 44.0077 28.7764C44.0077 28.7764 43.264 28.0215 42.9173 26.1596C42.772 25.3657 42.6098 24.5717 42.5427 23.7666C44.2704 24.3257 46.6747 23.5876 48.8441 21.7928C49.116 22.2022 49.4774 22.5444 49.9009 22.7937C50.1853 22.6558 50.5127 22.6362 50.8116 22.7389C51.1105 22.8417 51.3566 23.0585 51.4962 23.3421C51.6358 23.6256 51.6575 23.9529 51.5566 24.2525C51.4557 24.552 51.2404 24.7994 50.9577 24.9407C51.0751 25.7682 51.0359 27.3618 50.0407 27.6078C49.2523 27.8035 48.6876 27.3003 47.0997 27.0878ZM49.3362 33.7974C50.6841 33.2624 51.7979 32.2656 52.4785 30.9849C52.5568 31.2701 53.4178 33.8421 53.5017 33.9875C53.3689 34.5076 53.1133 34.9883 52.7562 35.3892C52.3991 35.79 51.9511 36.0993 51.4497 36.2911C48.531 37.6051 47.3624 35.8214 48.2011 34.7144C48.2067 34.7088 49.2132 34.5578 49.353 33.8253L49.3362 33.7974ZM47.9272 34.7255C47.368 35.3797 47.7594 36.6545 49.0454 36.9285C50.3314 37.2025 53.3116 36.1961 53.7198 33.9819C53.7198 33.9316 59.8143 34.4963 62.3248 36.2184C68.3187 40.2777 70.1527 47.4011 70.4658 48.4578C66.8706 50.8006 58.0307 51.3989 57.0466 51.4604C56.4921 48.9281 56.3318 46.3255 56.5713 43.7443C56.5713 43.6772 56.4763 43.6828 56.4707 43.7443C56.1576 46.3677 56.2861 49.0249 56.8509 51.6057C56.8578 51.629 56.8717 51.6495 56.8907 51.6645C56.9098 51.6795 56.933 51.6883 56.9572 51.6896C57.4045 51.6896 57.8574 51.6896 58.3047 51.6561C58.3438 52.3494 58.8079 55.0947 58.8638 55.7825C57.7492 55.4758 56.6127 55.2552 55.4643 55.1227C47.5022 54.2784 46.0261 54.2337 45.2266 52.9532C45.2825 50.8677 45.836 45.8355 48.5198 36.9621C48.524 36.9454 48.5244 36.928 48.5211 36.9112C48.5178 36.8944 48.5108 36.8784 48.5007 36.8646C48.4905 36.8507 48.4775 36.8392 48.4625 36.831C48.4474 36.8227 48.4307 36.8178 48.4136 36.8167C46.4455 36.9397 44.4755 37.0441 42.5036 37.1298C42.7496 37.0348 45.5676 35.1728 47.9439 34.7535L47.9272 34.7255ZM48.2962 37.0348C45.3216 47.0991 45.0868 51.6728 45.1091 52.7352C45.07 52.6793 44.7681 51.8797 44.3767 51.93C44.5556 48.2957 45.2545 44.9912 46.9599 38.1586C46.9599 38.0915 46.9263 38.0021 46.848 38.0132C39.3356 38.7425 31.7697 38.7331 24.2591 37.9853C24.1321 37.7629 24.0182 37.5333 23.918 37.2976C23.9907 37.2528 24.0634 37.2137 24.1361 37.1634C27.2057 37.4485 36.2637 37.7057 48.2962 37.0348ZM23.9907 37.9853L22.9452 37.8399C23.1073 37.7616 23.6273 37.4877 23.7279 37.4317C23.8118 37.5939 23.8957 37.8064 23.9907 37.9853ZM20.2893 38.8408C19.1207 39.4949 17.8347 40.479 17.5439 41.8657C17.4731 42.1908 17.4744 42.5276 17.5478 42.8522C17.6213 43.1768 17.765 43.4813 17.9689 43.7443C18.528 44.4656 19.0871 44.0295 19.6463 44.46C20.2054 44.8906 19.8476 45.4217 19.4897 45.7516C18.2256 46.6149 16.8303 47.2682 15.3577 47.6862C14.3401 47.9882 13.3225 48.1447 12.3887 48.4522C13.1883 47.9266 14.1891 47.5353 14.4016 46.5344C14.4473 46.2625 14.4254 45.9835 14.3376 45.7222C14.2498 45.4608 14.099 45.2251 13.8984 45.0359C13.4281 44.5983 12.8487 44.2951 12.221 44.1581C11.0636 43.8058 9.49244 43.4312 9.35265 41.9775C9.335 41.3615 9.49142 40.753 9.80395 40.2219C10.1165 39.6908 10.5725 39.2586 11.1195 38.9749C13.2722 37.7337 16.4369 37.9461 17.7955 35.5363C18.0839 35.0629 18.2134 34.5096 18.1651 33.9574C18.1168 33.4052 17.8933 32.8829 17.5272 32.4667C15.984 30.5544 12.713 30.3699 12.1986 27.8762C12.0458 27.1432 12.1886 26.3795 12.5959 25.7513C13.0032 25.123 13.6421 24.681 14.3737 24.5214C14.2612 24.714 14.2019 24.933 14.2019 25.156C14.2019 25.379 14.2612 25.598 14.3737 25.7906C14.7392 26.3695 15.2303 26.8587 15.8106 27.222C19.0648 29.4865 23.9404 28.9385 25.9309 32.9251C26.5348 34.1329 26.3055 34.446 25.6122 35.5307C24.6729 37.0627 21.9611 37.907 20.2893 38.8408ZM18.9306 55.3743C18.9179 55.3747 18.9054 55.3779 18.8942 55.3838C18.8829 55.3898 18.8731 55.3981 18.8656 55.4084C18.8581 55.4186 18.853 55.4304 18.8506 55.4429C18.8483 55.4554 18.8489 55.4683 18.8523 55.4805C18.9641 55.8719 18.9474 56.2969 19.048 56.6938C18.1595 57.4159 17.1123 57.9166 15.9924 58.1547C14.8726 58.3929 13.7122 58.3617 12.6068 58.0637L10.6163 50.795C12.5563 49.6124 14.7976 49.0181 17.0687 49.0841C17.1554 49.5807 17.3018 50.0651 17.5048 50.5266C18.1729 50.372 18.8719 50.4207 19.5121 50.6664C19.2309 50.9192 18.9829 51.2067 18.774 51.5219C18.4721 51.4715 18.1254 51.2926 17.8179 51.4156C17.5104 51.5386 17.5328 51.8797 17.6614 52.1425C18.0297 52.9128 18.2696 53.7382 18.3715 54.5859C18.3715 54.6977 18.5616 54.6977 18.5504 54.5859C18.5531 54.5394 18.5531 54.4927 18.5504 54.4461C18.9348 54.5009 19.3265 54.4724 19.6989 54.3624C20.0713 54.2524 20.4157 54.0636 20.7086 53.8087C20.6277 54.2298 20.4091 54.6121 20.0873 54.8955C19.7654 55.1789 19.3586 55.3473 18.9306 55.3743ZM20.6863 53.5571C20.0768 54.4517 18.8076 54.3343 18.5504 54.3119C18.4174 53.5374 18.1784 52.7848 17.8403 52.0754C17.7508 51.9189 17.6725 51.6896 17.8794 51.5946C18.0863 51.4995 18.4385 51.6617 18.7013 51.6505C18.6287 51.7847 18.528 51.9859 18.6175 52.1257C18.8299 52.4556 19.596 51.9636 19.8811 51.6896C19.9239 51.6886 19.9662 51.6984 20.0043 51.7179C20.0424 51.7374 20.075 51.7661 20.0992 51.8014C20.3731 52.2152 19.6854 52.5842 19.4058 52.6793C19.3925 52.6793 19.3797 52.6846 19.3703 52.694C19.3608 52.7034 19.3555 52.7162 19.3555 52.7296C19.3555 52.7429 19.3608 52.7557 19.3703 52.7652C19.3797 52.7746 19.3925 52.7799 19.4058 52.7799C19.5765 52.7493 19.7391 52.6838 19.8834 52.5876C20.0276 52.4914 20.1506 52.3665 20.2445 52.2208C20.2992 52.2529 20.3467 52.2957 20.3844 52.3466C20.422 52.3976 20.4489 52.4556 20.4636 52.5173C20.4782 52.5789 20.4802 52.6429 20.4695 52.7053C20.4587 52.7677 20.4355 52.8273 20.4011 52.8806C20.2851 53.0237 20.1408 53.1412 19.9773 53.2259C19.8137 53.3106 19.6344 53.3605 19.4506 53.3726C19.3723 53.3726 19.4058 53.5068 19.4841 53.4956C19.693 53.4865 19.8974 53.4317 20.0829 53.3351C20.2684 53.2385 20.4304 53.1024 20.5577 52.9365C20.6103 52.9659 20.6558 53.0066 20.6908 53.0557C20.7258 53.1048 20.7495 53.161 20.7602 53.2204C20.7709 53.2797 20.7683 53.3407 20.7526 53.3989C20.7369 53.4571 20.7085 53.5112 20.6695 53.5571H20.6863ZM20.9211 53.4341C20.9211 53.4341 21.0385 52.9532 20.6527 52.8079C20.6989 52.6557 20.6849 52.4916 20.6136 52.3494C20.5452 52.2346 20.4439 52.143 20.3228 52.0866C20.3356 52.0119 20.3311 51.9354 20.3098 51.8627C20.2885 51.79 20.2509 51.7232 20.1998 51.6672C20.0209 51.4715 19.9706 51.6281 20.088 51.4548C20.1495 51.3709 20.0153 51.2703 19.9482 51.3429C19.7322 51.5473 19.5003 51.7342 19.2549 51.9021C19.171 51.9524 18.774 52.1649 18.774 51.9748C18.9135 51.6256 19.1079 51.3009 19.3499 51.0131C19.4913 50.865 19.6779 50.7681 19.8804 50.7378C20.0828 50.7074 20.2896 50.7452 20.4682 50.8453C20.7863 50.9566 21.1209 51.0133 21.4579 51.0131C22.2127 51.0131 25.903 50.4539 26.3055 50.3812C26.6783 51.8014 27.025 53.2272 27.3455 54.6586C25.2265 54.1147 23.0751 53.7057 20.9043 53.4341H20.9211ZM22.7886 37.9797C25.8023 38.4494 34.3011 39.5117 46.7194 38.276C44.3152 46.9929 44.1754 52.0586 44.181 52.0754C44.1182 52.1931 44.0816 52.3231 44.0739 52.4563C44.0662 52.5895 44.0875 52.7228 44.1363 52.847C43.6945 52.8135 42.0898 52.5227 41.8997 52.9365C41.8666 52.9982 41.8526 53.0684 41.8596 53.1381C41.8666 53.2079 41.8942 53.2739 41.9389 53.3279C41.6258 53.3894 41.6984 53.764 41.8103 53.9317C41.8728 54.0212 41.9527 54.0973 42.0451 54.1554C41.9873 54.1544 41.9308 54.1724 41.8843 54.2068C41.8378 54.2412 41.8039 54.2899 41.7879 54.3455C41.6705 54.6977 42.2296 54.9773 42.6546 55.2233C42.6546 55.2233 42.0954 55.1283 42.0507 55.3575C42.006 55.5868 42.2464 55.7321 42.3918 55.8328C43.0026 56.2402 43.6773 56.5425 44.3879 56.7274C44.8428 59.7644 45.4909 62.7693 46.3281 65.7238C43.812 65.6232 30.3481 65.4498 29.3472 64.1135C29.1236 62.5927 27.9606 53.2775 22.7718 37.9797H22.7886ZM28.995 78.5391C29.5541 78.4888 30.1132 78.4497 30.6332 78.4105C30.6332 78.5224 30.745 89.0788 30.7562 90.2306C23.7727 90.1747 24.6729 90.2306 23.3925 90.2306C23.3589 86.9205 23.331 83.9068 23.3198 83.2135C25.3418 81.8207 27.2405 80.2568 28.995 78.5391ZM27.0268 64.2701C26.5627 64.6894 22.7327 69.9565 21.6871 71.6786C20.306 65.3157 15.6708 65.0137 15.5367 64.969C18.8747 64.8572 26.5292 64.3036 27.01 64.2701H27.0268ZM13.1324 79.1877C12.3943 77.4712 11.1027 75.6149 10.264 73.5629C9.40857 71.3934 9.14577 68.5307 10.8232 66.6744C12.2713 65.0585 15.0502 64.6 17.4545 66.0593C19.6015 67.3621 20.8093 69.6545 21.4746 72.0141C21.2901 72.3216 15.4025 81.0273 14.916 81.7318C14.916 81.7597 15.9336 82.7662 16.2132 83.029C15.9504 83.4148 14.8489 84.9859 14.5358 85.3829C14.2899 85.2507 14.0337 85.1385 13.7698 85.0474C13.7698 85.0474 13.8481 80.8372 13.1324 79.1877ZM14.6309 85.4891C14.9328 85.0922 16.079 83.5434 16.3362 83.1576C17.0351 83.8173 17.7284 84.4771 18.4106 85.1537C17.8891 85.6114 17.4135 86.1189 16.9904 86.6689C16.4033 87.5915 16.8115 88.7433 15.5478 89.6267C15.4584 89.5484 14.7483 88.8887 14.5358 88.6594C14.4783 88.5974 14.4399 88.5201 14.425 88.4369C14.4101 88.3536 14.4195 88.2679 14.4519 88.1898C14.5749 87.9158 15.1788 86.5683 14.6309 85.4891ZM14.8489 102.61C14.5619 102.528 14.3092 102.355 14.1288 102.117C13.9483 101.879 13.8498 101.589 13.8481 101.29C13.7978 100.205 14.3177 100.11 14.0046 89.9734C14.4743 90.3089 14.9384 90.6108 15.3857 90.8792C15.4607 90.9284 15.5495 90.9522 15.6391 90.9471C15.7287 90.9421 15.8143 90.9085 15.8833 90.8512C15.9703 90.7762 16.0507 90.6939 16.1237 90.6052C16.1574 90.5582 16.1813 90.5049 16.1939 90.4484C16.2066 90.392 16.2077 90.3336 16.1972 90.2767C16.1868 90.2198 16.165 90.1656 16.1332 90.1174C16.1013 90.0691 16.0601 90.0277 16.0119 89.9957L15.6485 89.7106C16.9065 88.8999 16.5822 87.7089 17.0966 86.8478C17.5187 86.2746 18.0066 85.7529 18.5504 85.2934L19.1766 85.9309C19.1766 85.9309 20.8931 84.8685 23.0905 83.3365C23.1297 85.1425 23.3254 101.788 23.4036 102.582C21.9108 102.61 15.4025 102.772 14.8489 102.61ZM23.3757 90.3089C26.423 90.3648 27.2113 90.3871 30.7395 90.4151C30.773 93.535 30.8121 95.6933 31.0078 98.2989C31.0078 98.2989 25.9756 98.4498 23.4651 98.5952C23.4372 96.6438 23.4036 93.3561 23.4036 90.3089H23.3757ZM23.5434 102.582C23.5434 101.888 23.4819 99.3388 23.4707 98.7629C25.9868 98.6437 28.5048 98.5542 31.0246 98.4946C31.0246 98.7965 31.2986 101.43 31.3657 102.442L23.5434 102.582ZM36.2022 107.916C35.608 107.947 35.0127 107.947 34.4185 107.916C34.3373 107.906 34.2607 107.873 34.1981 107.82C34.1355 107.768 34.0897 107.698 34.0663 107.62C33.8503 106.896 33.4334 106.248 32.8642 105.752C32.9033 105.143 32.9257 103.639 32.9257 103.516C33.7569 103.538 34.59 103.577 35.425 103.633C35.3919 104.277 35.4351 104.923 35.5536 105.556C35.8052 106.266 36.6495 107.083 36.2022 107.916ZM36.0792 72.2601C33.7588 72.2601 31.0973 74.642 30.6388 78.1813L29.1907 78.2931C29.7458 77.7204 30.2508 77.1012 30.7003 76.4424C31.4607 73.7082 34.0831 71.7792 36.2916 71.7401C37.4432 71.7761 38.5399 72.2406 39.3669 73.0429C40.1213 73.7728 40.7203 74.6476 41.1281 75.6149C42.6098 76.4312 45.3719 77.1413 48.4416 77.6837C47.4463 77.6837 42.6601 77.7284 41.2735 77.7563C40.7703 74.5525 38.2989 72.3048 36.0792 72.2601ZM47.3513 101.492C44.2537 101.961 37.6224 102.285 37.4323 102.291C37.7174 101.005 37.9914 99.6967 38.2766 98.3771C41.4785 98.3548 44.6805 98.3417 47.8824 98.338C47.7035 99.4003 47.5302 100.457 47.3513 101.514V101.492ZM38.3213 98.1367C38.8245 95.6821 39.7583 90.4878 39.7638 90.4542L57.589 90.6387C57.7064 93.1045 57.9412 95.5703 58.2152 98.0249C54.838 98.1143 40.418 98.1591 38.3213 98.1814V98.1367ZM59.0427 102.61C58.5395 98.2429 58.0978 94.3234 57.9244 89.9175C57.6281 82.5481 58.3214 80.0488 58.3718 78.0806C58.478 73.5573 60.6083 66.9651 64.9304 65.8468C65.6764 65.6157 66.4643 65.5525 67.2377 65.6618C68.011 65.771 68.7506 66.05 69.4034 66.4787C69.8819 66.8876 70.2982 67.3642 70.6391 67.8933C71.3628 68.9969 71.8334 70.247 72.0171 71.554C72.2007 72.8609 72.093 74.1923 71.7015 75.4527C70.9746 77.8123 69.1127 80.3787 68.0895 83.0457C66.1437 88.1394 66.3338 99.8588 67.262 103.734C64.4813 103.84 61.7026 103.477 59.0427 102.66V102.61ZM67.4912 103.7C66.8091 100.848 66.8314 97.2701 66.8594 94.2899C66.8216 91.0237 67.165 87.7643 67.8826 84.5778C68.9617 80.2613 72.3221 77.2755 72.3556 72.8695C72.3847 70.8751 71.7494 68.9277 70.5496 67.3341C69.9756 66.4893 69.1192 65.8767 68.1342 65.6064H85.3443C85.3051 68.0945 84.992 99.7694 84.992 99.775L80.8712 102.498C76.3423 102.559 71.9978 103.571 67.4912 103.75V103.7ZM92.2104 66.8365C93.8263 68.8773 94.4749 72.042 92.9988 75.9336C91.7631 79.2157 86.3395 86.7696 88.8053 100.994C88.7662 100.994 87.3963 100.099 86.7365 99.7302C86.7365 99.7302 87.2957 68.5474 87.3516 65.6232C90.9524 65.4051 91.9029 66.501 92.2104 66.8868V66.8365ZM90.533 47.3507C91.1996 48.5617 91.5152 49.9345 91.4444 51.315C91.5171 55.967 90.6896 60.8202 89.6384 65.3548C89.1911 65.3045 87.6591 65.2821 87.346 65.2989C87.346 64.0352 87.5752 46.5176 87.5864 45.6063C88.1901 45.6314 88.7776 45.8092 89.2939 46.1231C89.8102 46.437 90.2384 46.8767 90.5386 47.4011L90.533 47.3507ZM86.4514 99.7302C86.4234 99.9818 95.1123 104.863 95.3975 104.986C94.7489 106.015 91.4836 106.859 90.2143 106.982C89.4315 107.06 82.297 106.982 80.7482 106.842C79.1221 106.709 77.5331 106.285 76.0571 105.59C76.6554 105.288 85.1933 99.9483 85.1989 99.7302C85.294 95.6094 85.9537 35.7599 85.9761 33.2606H87.5025C87.469 38.2201 86.5185 99.2773 86.457 99.7806L86.4514 99.7302ZM84.5671 33.1208C84.6957 29.246 85.8251 3.25759 85.8028 3.24641L88.1232 3.20168C88.3748 5.11391 92.0371 32.9922 92.0371 33.009C91.7072 33.0258 85.7133 33.1208 84.5671 33.1208ZM92.244 32.9978C92.244 32.9978 88.6543 5.37111 88.2629 3.20727L90.7008 3.16254C91.1816 5.09714 98.1764 30.5321 98.7467 32.6903C98.7523 32.6903 94.4134 32.9363 92.244 33.009V32.9978ZM98.9871 32.6735C98.9871 32.6735 91.1593 4.20252 90.8461 3.14577L92.7696 3.11222C94.1003 7.06528 102.739 30.3923 103.505 32.3716C102.003 32.4983 100.497 32.6027 98.9871 32.6847V32.6735Z" fill="#9155FD"/>
</svg>
